<svg width="18" height="16" viewBox="0 0 18 16" fill="none" xmlns="http://www.w3.org/2000/svg">
<path d="M1.5 9.16675H4C4.44203 9.16675 4.86595 9.34234 5.17851 9.6549C5.49107 9.96746 5.66667 10.3914 5.66667 10.8334V13.3334C5.66667 13.7754 5.49107 14.1994 5.17851 14.5119C4.86595 14.8245 4.44203 15.0001 4 15.0001H3.16667C2.72464 15.0001 2.30072 14.8245 1.98816 14.5119C1.67559 14.1994 1.5 13.7754 1.5 13.3334V9.16675ZM1.5 9.16675C1.5 8.18183 1.69399 7.20656 2.0709 6.29662C2.44781 5.38668 3.00026 4.55989 3.6967 3.86345C4.39314 3.16701 5.21993 2.61456 6.12987 2.23765C7.03982 1.86074 8.01509 1.66675 9 1.66675C9.98491 1.66675 10.9602 1.86074 11.8701 2.23765C12.7801 2.61456 13.6069 3.16701 14.3033 3.86345C14.9997 4.55989 15.5522 5.38668 15.9291 6.29662C16.306 7.20656 16.5 8.18183 16.5 9.16675M16.5 9.16675V13.3334C16.5 13.7754 16.3244 14.1994 16.0118 14.5119C15.6993 14.8245 15.2754 15.0001 14.8333 15.0001H14C13.558 15.0001 13.134 14.8245 12.8215 14.5119C12.5089 14.1994 12.3333 13.7754 12.3333 13.3334V10.8334C12.3333 10.3914 12.5089 9.96746 12.8215 9.6549C13.134 9.34234 13.558 9.16675 14 9.16675H16.5Z" stroke="#333333" stroke-width="2" stroke-linecap="round" stroke-linejoin="round"/>
</svg>
