<svg width="22" height="18" viewBox="0 0 22 18" fill="none" xmlns="http://www.w3.org/2000/svg">
<path d="M1.25 12.75L6.409 7.591C6.61793 7.38206 6.86597 7.21633 7.13896 7.10325C7.41194 6.99018 7.70452 6.93198 8 6.93198C8.29548 6.93198 8.58806 6.99018 8.86104 7.10325C9.13403 7.21633 9.38207 7.38206 9.591 7.591L14.75 12.75M13.25 11.25L14.659 9.841C14.8679 9.63206 15.116 9.46633 15.389 9.35325C15.6619 9.24018 15.9545 9.18198 16.25 9.18198C16.5455 9.18198 16.8381 9.24018 17.111 9.35325C17.384 9.46633 17.6321 9.63206 17.841 9.841L20.75 12.75M2.75 16.5H19.25C19.6478 16.5 20.0294 16.342 20.3107 16.0607C20.592 15.7794 20.75 15.3978 20.75 15V3C20.75 2.60218 20.592 2.22064 20.3107 1.93934C20.0294 1.65804 19.6478 1.5 19.25 1.5H2.75C2.35218 1.5 1.97064 1.65804 1.68934 1.93934C1.40804 2.22064 1.25 2.60218 1.25 3V15C1.25 15.3978 1.40804 15.7794 1.68934 16.0607C1.97064 16.342 2.35218 16.5 2.75 16.5ZM13.25 5.25H13.258V5.258H13.25V5.25ZM13.625 5.25C13.625 5.34946 13.5855 5.44484 13.5152 5.51517C13.4448 5.58549 13.3495 5.625 13.25 5.625C13.1505 5.625 13.0552 5.58549 12.9848 5.51517C12.9145 5.44484 12.875 5.34946 12.875 5.25C12.875 5.15054 12.9145 5.05516 12.9848 4.98484C13.0552 4.91451 13.1505 4.875 13.25 4.875C13.3495 4.875 13.4448 4.91451 13.5152 4.98484C13.5855 5.05516 13.625 5.15054 13.625 5.25Z" stroke="#F1F1F1" stroke-width="1.5" stroke-linecap="round" stroke-linejoin="round"/>
</svg>
